# xmcd
#
# Track frame offsets: 
#        150
#        12388
#        22539
#        35359
#        45020
#        55590
#        68859
#        77524
#        89374
#        102171
#        114427
#        125178
#        139337
#        149306
#        164130
#        176732
#        186554
#
# Disc length: 2663 seconds
#
# Revision: 0
# Processed by: cddbd v1.4PL0 Copyright (c) Steve Scherf et al.
# Submitted via: ExactAudioCopy v0.95a4
#
DISCID=e30a6511
DTITLE=Billie Jo Spears - Souvenirs and California Memories
DYEAR=1900
DGENRE=Country
TTITLE0=What have they done to my song ma
TTITLE1=It makes no difference now
TTITLE2=He's on the run again
TTITLE3=Danny (ruby baby)
TTITLE4=I'm so lonesome i could cry
TTITLE5=Fever
TTITLE6=You're my man
TTITLE7=Ease the want in me
TTITLE8=Dallas
TTITLE9=Sunshine
TTITLE10=Come on home
TTITLE11=Which way you goin' billy
TTITLE12=I stayed long enough
TTITLE13=I'll never be free
TTITLE14=Stepchild
TTITLE15=Souvenirs and california memories
TTITLE16=It could'a been me
EXTD=
EXTT0=
EXTT1=
EXTT2=
EXTT3=
EXTT4=
EXTT5=
EXTT6=
EXTT7=
EXTT8=
EXTT9=
EXTT10=
EXTT11=
EXTT12=
EXTT13=
EXTT14=
EXTT15=
EXTT16=
PLAYORDER=
